{"title":"Taken (2008) [DvdRip] [Xvid] {1337x}-Noir","uid":4441222,"size":739944177,"categoryP":"video","categoryS":"movies","magnet":"?xt=urn:btih:ac217241202a7ecd2c6fe13852c23071b78a5dae&amp;dn=Taken+%282008%29+%5BDvdRip%5D+%5BXvid%5D+%7B1337x%7D-Noir&amp;tr=udp%3A%2F%2Ftracker.openbittorrent.com%3A80&amp;tr=udp%3A%2F%2Fopen.demonii.com%3A1337&amp;tr=udp%3A%2F%2Ftracker.coppersurfer.tk%3A6969&amp;tr=udp%3A%2F%2Fexodus.desync.com%3A6969","seeders":2,"leechers":0,"uploader":"INoirI","files":4,"time":1223826799,"description":" &lt;a href=&quot;\nhttp://i220.photobucket.com/albums/dd94/ItheplagueI/2-19.jpg&quot; rel=&quot;nofollow&quot; target=&quot;_NEW&quot;&gt;\nhttp://i220.photobucket.com/albums/dd94/ItheplagueI/2-19.jpg&lt;/a&gt;\n &lt;a href=&quot;\nhttp://i220.photobucket.com/albums/dd94/ItheplagueI/1-22.jpg&quot; rel=&quot;nofollow&quot; target=&quot;_NEW&quot;&gt;\nhttp://i220.photobucket.com/albums/dd94/ItheplagueI/1-22.jpg&lt;/a&gt;\n &lt;a href=&quot;\nhttp://i220.photobucket.com/albums/dd94/ItheplagueI/3-15.jpg&quot; rel=&quot;nofollow&quot; target=&quot;_NEW&quot;&gt;\nhttp://i220.photobucket.com/albums/dd94/ItheplagueI/3-15.jpg&lt;/a&gt;\n &lt;a href=&quot;\nhttp://i220.photobucket.com/albums/dd94/ItheplagueI/4-15.jpg&quot; rel=&quot;nofollow&quot; target=&quot;_NEW&quot;&gt;\nhttp://i220.photobucket.com/albums/dd94/ItheplagueI/4-15.jpg&lt;/a&gt;           \n\n\n\n\n                         **************\n                         * Taken 2008 *\n                         **************\n\n________________________\n   General Information  |  \n________________________|\n_______________________________________________________________\nType                    : Movie                                \nFormat                  : AVI                                  \nFormat/Info             : Audio Video Interleave               \nFile size               : 704Mb                                \nDuration                : 1h 27mn                              \nLanguage                : English\nSource                  : Dvd PAL                              \nSubtitles               : English When needed                            \nGenre                   : Action | Crime | Drama | Thriller                  \nIMDB Link               : http://www.imdb.com/title/tt0936501/ \nRating                  : 7.8/10                               \n_______________________________________________________________\n________________________________________________________________\nVideo\nFormat                           : MPEG-4 Visual\nFormat profile                   : Streaming Video@L1\nFormat settings, BVOP            : Yes\nFormat settings, QPel            : No\nFormat settings, GMC             : No warppoints\nFormat settings, Matrix          : Default\nMuxing mode                      : Packed bitstream\nCodec ID                         : XVID\nCodec ID/Hint                    : XviD\nDuration                         : 1h 29mn\nBit rate                         : 964 Kbps\nWidth                            : 656 pixels\nHeight                           : 272 pixels\nDisplay aspect ratio             : 2.35\nFrame rate                       : 25.000 fps\nResolution                       : 24 bits\nColorimetry                      : 4:2:0\nScan type                        : Progressive\nBits/(Pixel*Frame)               : 0.216\nStream size                      : 617 MiB (88%)          \n_______________________________________________________________\nAudio\nFormat                           : MPEG Audio\nFormat version                   : Version 1\nFormat profile                   : Layer 3\nCodec ID                         : 55\nCodec ID/Hint                    : MP3\nDuration                         : 1h 29mn\nBit rate mode                    : Constant\nBit rate                         : 128 Kbps\nMinimum bit rate                 : 128 Kbps\nChannel(s)                       : 2 channels\nSampling rate                    : 48.0 KHz\nResolution                       : 16 bits\nStream size                      : 82.0 MiB (12%)\nAlignment                        : Aligned on interleaves\nInterleave, duration             : 40 ms (1.00 video frame)\nInterleave, preload duration     : 504 ms\nWriting library                  : LAME3.98 \nEncoding settings                : CBR                       \n_______________________________________________________________\n________________\n   Description  \n________________\n_______________________________________________________________\nBryan (Liam Neeson), a former secret agent living in the US. \nHe is skilled in hand to hand combat, divorced; and loves his \n17-year-old daughter Kim (Maggie Grace) who lives with his \nex-wife and her new husband Stuart (Xander Berkeley). Kim \nwants to take a vacation in Europe with her friend Amanda \n(Katie Cassidy), and together follow U2&amp;#039;s European tour. \nKim&amp;#039;s mother allows this, but Kim also needs permission from\n her father. Since Kim fears that Bryan will not consent, \nshe pretends that they will only stay in Paris. Reluctantly, \nBryan agrees.          \n_______________________________________________________________\n\n___________________\nNotes              \n___________________\n_______________________________________________________________\nBe aware People are starting to use my tag to create fake files\nMake sure its a real genuine release from me, I have never and \nwill never do Cams,Telesyncs,Telecine or RAR files.Try to check \n1337x.org to see if the file exist.\n \nFuck the fakers and enjoy my release.                   \n_______________________________________________________________\n___________________\n  Post Information \n___________________\n_________________________________\nPosted by............: Noir     \nPosted on............: 10/11/2008\n_________________________________","torrent":{"xt":"urn:btih:ac217241202a7ecd2c6fe13852c23071b78a5dae","amp;dn":"Taken+%282008%29+%5BDvdRip%5D+%5BXvid%5D+%7B1337x%7D-Noir","amp;tr":["udp%3A%2F%2Ftracker.openbittorrent.com%3A80","udp%3A%2F%2Fopen.demonii.com%3A1337","udp%3A%2F%2Ftracker.coppersurfer.tk%3A6969","udp%3A%2F%2Fexodus.desync.com%3A6969"],"infoHash":"ac217241202a7ecd2c6fe13852c23071b78a5dae","infoHashBuffer":{"type":"Buffer","data":[172,33,114,65,32,42,126,205,44,111,225,56,82,194,48,113,183,138,93,174]},"announce":[],"urlList":[]}}